# xmcd
#
# Track frame offsets:
# 150
# 22405
# 37469
# 51287
# 64133
# 84227
# 98134
# 118583
# 136315
# 144308
#
# Disc length: 2259 seconds
#
#
# Revision: 0
# Processed by: cddbd v1.5.1PL2 Copyright (c) Steve Scherf et al.
# Submitted via: FreeRIP 2.941 
#
DISCID=9108d10a
DTITLE=Bluespumpm - Village
DYEAR=1981
DGENRE=Austro
TTITLE0=Village
TTITLE1=Let's start again
TTITLE2=I'm glad
TTITLE3=The big lie
TTITLE4=In my owen way
TTITLE5=I found me somebody
TTITLE6=It's real good feeling
TTITLE7=To hell
TTITLE8=Wild band
TTITLE9=It's just crazy
EXTD=
EXTT0=
EXTT1=
EXTT2=
EXTT3=
EXTT4=
EXTT5=
EXTT6=
EXTT7=
EXTT8=
EXTT9=
PLAYORDER=
